<svg xmlns="http://www.w3.org/2000/svg" xmlns:xlink="http://www.w3.org/1999/xlink" viewBox="0 0 592 592"><defs><style>.cls-1,.cls-5{fill:#ffc835;}.cls-2{fill:#d8a430;}.cls-3{fill:url(#radial-gradient);}.cls-4{fill:url(#radial-gradient-5);}.cls-5{opacity:0.26;}.cls-6,.cls-7{stroke:#000;stroke-miterlimit:10;}.cls-6{opacity:0.51;fill:url(#linear-gradient);}.cls-7{opacity:0.51;fill:url(#linear-gradient-2);}</style><radialGradient id="radial-gradient" cx="76.65" cy="76.65" r="76.65" gradientUnits="userSpaceOnUse"><stop offset="0" stop-color="#fff"/><stop offset="1"/></radialGradient><radialGradient id="radial-gradient-5" cx="76.65" cy="76.65" r="36.31" xlink:href="#radial-gradient"/><linearGradient id="linear-gradient" x1="824.8" y1="622.58" x2="1083.44" y2="622.58" gradientUnits="userSpaceOnUse"><stop offset="0" stop-color="#fff"/><stop offset="0.04" stop-color="#fdfff7"/><stop offset="0.1" stop-color="#f7ffe1"/><stop offset="0.18" stop-color="#edffbd"/><stop offset="0.27" stop-color="#e0ff8c"/><stop offset="0.37" stop-color="#cfff4d"/><stop offset="0.43" stop-color="#c3ff1f"/></linearGradient><linearGradient id="linear-gradient-2" x1="605.51" y1="599.16" x2="901.99" y2="599.16" gradientUnits="userSpaceOnUse"><stop offset="0" stop-color="#fff"/><stop offset="0.04" stop-color="#fdfff7"/><stop offset="0.09" stop-color="#f7ffe1"/><stop offset="0.17" stop-color="#edffbd"/><stop offset="0.25" stop-color="#e0ff8c"/><stop offset="0.34" stop-color="#cfff4d"/><stop offset="0.4" stop-color="#c3ff1f"/></linearGradient><symbol id="Moon2" data-name="Moon2" viewBox="0 0 202.21 327.77"><path class="cls-1" d="M76.65,163.89A163.93,163.93,0,0,1,202.21,4.52a163.89,163.89,0,1,0,0,318.73A163.93,163.93,0,0,1,76.65,163.89Zm-4-113.46a8.07,8.07,0,1,1-8.06,8.06A8.06,8.06,0,0,1,72.61,50.43ZM24.46,163.89a4.29,4.29,0,1,1,4.28-4.29A4.29,4.29,0,0,1,24.46,163.89Zm16.89,54a11.1,11.1,0,1,1,11.09-11.09A11.09,11.09,0,0,1,41.35,217.84Zm0-90.77A11.09,11.09,0,1,1,52.44,116,11.08,11.08,0,0,1,41.35,127.07ZM68.58,260.2a4,4,0,1,1,4-4A4,4,0,0,1,68.58,260.2Zm0-163.38a6,6,0,1,1,6,6.05A6.05,6.05,0,0,1,68.58,96.82Zm26.35,206a6.18,6.18,0,1,1,6.17-6.18A6.18,6.18,0,0,1,94.93,302.81Z"/><circle class="cls-2" cx="72.61" cy="58.49" r="8.07" transform="translate(-9.22 103.2) rotate(-67.5)"/><circle class="cls-2" cx="41.35" cy="115.98" r="11.09"/><circle class="cls-2" cx="41.35" cy="206.75" r="11.09"/><path class="cls-2" d="M68.58,252.13a4,4,0,1,0,4,4A4,4,0,0,0,68.58,252.13Z"/><path class="cls-2" d="M24.46,155.31a4.29,4.29,0,1,0,4.28,4.29A4.29,4.29,0,0,0,24.46,155.31Z"/><circle class="cls-2" cx="74.63" cy="96.82" r="6.05"/><circle class="cls-2" cx="94.93" cy="296.63" r="6.18" transform="translate(-46.29 19.04) rotate(-9.22)"/></symbol><symbol id="star" data-name="star" viewBox="0 0 153.3 153.3"><polygon class="cls-3" points="74.03 62.48 72.8 64.26 0 36.31 55.98 74.8 72.8 72.8 74.03 62.48"/><polygon class="cls-3" points="62.48 79.27 64.26 80.49 36.31 153.3 74.8 97.32 72.8 80.49 62.48 79.27"/><polygon class="cls-3" points="153.3 116.99 97.32 78.5 80.49 80.49 79.27 90.81 80.49 89.03 153.3 116.99"/><polygon class="cls-3" points="90.81 74.03 89.03 72.8 116.99 0 78.5 55.98 80.49 72.8 90.81 74.03"/><polygon class="cls-4" points="76.65 112.95 79.27 90.81 74.8 97.32 76.65 112.95"/><polygon class="cls-4" points="112.95 76.65 90.81 74.03 97.32 78.5 112.95 76.65"/><polygon class="cls-4" points="40.34 76.65 62.48 79.27 55.98 74.8 40.34 76.65"/><polygon class="cls-4" points="76.65 40.34 74.03 62.48 78.5 55.98 76.65 40.34"/><polygon class="cls-3" points="97.32 78.5 90.81 74.03 80.49 72.8 78.5 55.98 74.03 62.48 72.8 72.8 55.98 74.8 62.48 79.27 72.8 80.49 74.8 97.32 79.27 90.81 80.49 80.49 97.32 78.5"/><polygon class="cls-4" points="97.32 78.5 90.81 74.03 80.49 72.8 78.5 55.98 74.03 62.48 72.8 72.8 55.98 74.8 62.48 79.27 72.8 80.49 74.8 97.32 79.27 90.81 80.49 80.49 97.32 78.5"/></symbol></defs><g id="Layer_1" data-name="Layer 1"><circle class="cls-5" cx="296" cy="296" r="296"/><use width="202.21" height="327.77" transform="translate(142.74 21.64) scale(1.06 0.92)" xlink:href="#Moon2"/><use width="153.3" height="153.3" transform="translate(356.25 209.61) scale(0.17)" xlink:href="#star"/><use width="153.3" height="153.3" transform="translate(264.01 65.88) scale(0.53 0.48)" xlink:href="#star"/><use width="153.3" height="153.3" transform="translate(383.02 149.76) scale(0.41)" xlink:href="#star"/></g><g id="Layer_2" data-name="Layer 2"><path class="cls-6" d="M999.89,581.17c22-9,78,91.41,83.15,88.52,6.39-3.61-64.88-169.75-99.25-160.94-31.16,8-12.07,154.71-34.87,158.26-23,3.57-50.48-144.28-80.47-142.17-35.34,2.5-46.84,211.39-42.91,211.91,3.16.42,19.83-134.48,42.91-134.12,17.82.28,18,80.82,61.7,93.88,14.14,4.23,31.23.92,42.91-8C1009.1,660.83,981.83,588.59,999.89,581.17Z" transform="translate(-528.8 -257.1)"/><path class="cls-7" d="M628.37,555.83c3.21,33.83-1.44,33.94,0,150.21.54,43.86,1.44,62.68,16.09,75.1,21.63,18.33,64.58,15.42,80.48-5.36,24.72-32.33-20.74-101.8-10.73-107.3,9-5,34.53,58.25,85.83,69.75,46.4,10.39,103.11-24,101.93-48.29-1.82-37.35-139.64-42.74-142.16-83.15-2.36-37.85,117-58.48,115.34-104.61-.77-21.7-28.14-44.38-53.65-45.6C766.71,454,730,550.77,708.84,542.41c-20.67-8.18,15.94-100.54-21.46-128.75-20.24-15.26-59-9.4-75.1,10.73C592.78,448.85,620.87,476.82,628.37,555.83Z" transform="translate(-528.8 -257.1)"/></g></svg>