<svg xmlns="http://www.w3.org/2000/svg" xmlns:xlink="http://www.w3.org/1999/xlink" viewBox="0 0 1368 768.58"><defs><style>.cls-1,.cls-2{stroke-miterlimit:10;}.cls-1{fill:url(#linear-gradient);stroke:url(#linear-gradient-2);}.cls-2{fill:url(#linear-gradient-3);stroke:url(#linear-gradient-4);}</style><linearGradient id="linear-gradient" x1="608.76" y1="95.1" x2="608.17" y2="95.48" gradientUnits="userSpaceOnUse"><stop offset="0" stop-color="#c3ff1f"/><stop offset="1" stop-color="#848e00" stop-opacity="0.6"/></linearGradient><linearGradient id="linear-gradient-2" x1="607.98" y1="95.26" x2="609.01" y2="95.26" gradientUnits="userSpaceOnUse"><stop offset="0" stop-color="#03ea0b"/><stop offset="1" stop-color="#848e00" stop-opacity="0.6"/></linearGradient><linearGradient id="linear-gradient-3" x1="907.1" y1="224.37" x2="218.88" y2="667.37" xlink:href="#linear-gradient"/><linearGradient id="linear-gradient-4" x1="0" y1="384.29" x2="1368" y2="384.29" xlink:href="#linear-gradient-2"/></defs><g id="Layer_2" data-name="Layer 2"><g id="Layer_1-2" data-name="Layer 1"><path class="cls-1" d="M608.5,94.13s0,.8,0,2.26"/><path class="cls-2" d="M.5,767.37c45.81-46.16,108.33-74.6,177.28-74.6,66.31,0,126.68,26.3,172,69.37,45.27-43.07,105.64-69.37,171.94-69.37A247.36,247.36,0,0,1,673.2,744.64c44.95-41.57,104.24-66.84,169.24-66.84,62.55,0,119.82,23.41,164.11,62.22,46.23-49.44,111-80.19,182.67-80.19,69.45,0,132.39,28.86,178.28,75.62V272.19s-80.56-136.48-385.78-136.48c-282,0-297.05-116.34-297.71-134.08L.5.5Z"/></g></g></svg>